<?xml version="1.0" encoding="utf-8"?>
<!-- Generator: Adobe Illustrator 15.0.0, SVG Export Plug-In . SVG Version: 6.00 Build 0)  -->
<!DOCTYPE svg PUBLIC "-//W3C//DTD SVG 1.1//EN" "http://www.w3.org/Graphics/SVG/1.1/DTD/svg11.dtd">
<svg version="1.1" id="Calque_1" xmlns="http://www.w3.org/2000/svg" xmlns:xlink="http://www.w3.org/1999/xlink" x="0px" y="0px"
	 width="153px" height="171.352px" viewBox="0 0 153 171.352" enable-background="new 0 0 153 171.352" xml:space="preserve">
<g transform="translate(-242 -1420)">
	<linearGradient id="SVGID_1_" gradientUnits="userSpaceOnUse" x1="318.4995" y1="1420.176" x2="318.4995" y2="1570.1793">
		<stop  offset="0" style="stop-color:#F45B5B"/>
		<stop  offset="1" style="stop-color:#FCC9C9"/>
	</linearGradient>
	<circle fill="url(#SVGID_1_)" cx="318.5" cy="1496.5" r="76.5"/>
	<path fill="#222C40" d="M291.982,1549.854c-2.414-2.414-1.156-1.733-6.979-3.292c-2.579-0.747-4.981-2.006-7.065-3.699
		l-12.6,30.899c-0.926,2.274,0.167,4.868,2.44,5.795c0.585,0.238,1.215,0.35,1.847,0.325l14.638-0.558l10.068,10.635
		c1.687,1.782,4.5,1.859,6.282,0.173c0.46-0.436,0.822-0.965,1.061-1.551l14.46-35.455c-7.857,4.527-17.78,3.182-24.148-3.275
		L291.982,1549.854z M371.35,1573.766l-12.601-30.899c-2.083,1.694-4.485,2.953-7.065,3.699c-5.854,1.567-4.57,0.884-6.979,3.292
		c-6.369,6.457-16.293,7.803-24.15,3.275l14.459,35.455c0.928,2.273,3.521,3.364,5.795,2.438c0.586-0.239,1.113-0.601,1.549-1.06
		l10.07-10.635l14.639,0.558c2.453,0.094,4.518-1.819,4.611-4.273c0.024-0.632-0.086-1.261-0.324-1.847L371.35,1573.766z
		 M338.066,1543.567c4.246-4.319,4.731-3.947,10.777-5.6c3.885-1.079,6.899-4.147,7.909-8.051c2.078-7.891,1.539-6.938,7.209-12.71
		c2.833-2.902,3.933-7.08,2.896-11c-2.075-7.884-2.078-6.784,0-14.677c1.037-3.921-0.063-8.099-2.896-11
		c-5.67-5.773-5.131-4.823-7.209-12.711c-1.01-3.903-4.024-6.972-7.909-8.051c-7.744-2.103-6.813-1.55-12.488-7.326
		c-2.801-2.868-6.936-3.996-10.805-2.946c-7.743,2.111-6.662,2.111-14.419,0c-3.868-1.05-8.001,0.079-10.8,2.947
		c-5.67,5.773-4.737,5.224-12.485,7.338c-3.885,1.078-6.899,4.147-7.909,8.051c-2.075,7.887-1.539,6.937-7.209,12.71
		c-2.834,2.901-3.934,7.079-2.895,11c2.075,7.879,2.078,6.779,0,14.674c-1.036,3.921,0.063,8.098,2.895,11
		c5.67,5.773,5.131,4.82,7.209,12.71c1.01,3.903,4.024,6.972,7.909,8.051c6.218,1.695,6.682,1.429,10.774,5.601
		c3.645,3.738,9.41,4.413,13.819,1.616c3.606-2.289,8.21-2.289,11.816,0C328.665,1547.984,334.426,1547.306,338.066,1543.567z
		 M292.132,1497.994c0.256-14.475,12.197-26.002,26.672-25.746c14.476,0.256,26.002,12.197,25.746,26.672
		c-0.253,14.294-11.911,25.749-26.208,25.75C303.738,1524.54,292.004,1512.598,292.132,1497.994z"/>
</g>
</svg>
