<?xml version="1.0" encoding="utf-8"?>
<!-- Generator: Adobe Illustrator 15.0.0, SVG Export Plug-In . SVG Version: 6.00 Build 0)  -->
<!DOCTYPE svg PUBLIC "-//W3C//DTD SVG 1.1//EN" "http://www.w3.org/Graphics/SVG/1.1/DTD/svg11.dtd">
<svg version="1.1" id="Calque_1" xmlns="http://www.w3.org/2000/svg" xmlns:xlink="http://www.w3.org/1999/xlink" x="0px" y="0px"
	 width="153px" height="153px" viewBox="0 0 153 153" enable-background="new 0 0 153 153" xml:space="preserve">
<g transform="translate(-1107 -1420)">
	<linearGradient id="SVGID_1_" gradientUnits="userSpaceOnUse" x1="1183.4995" y1="1421" x2="1183.4995" y2="1569.0135">
		<stop  offset="0" style="stop-color:#F45B5B"/>
		<stop  offset="1" style="stop-color:#FCC9C9"/>
	</linearGradient>
	<circle fill="url(#SVGID_1_)" cx="1183.5" cy="1496.5" r="76.5"/>
	<path fill="#222C40" d="M1246.825,1518.65h-3.175v-21.45c-0.006-2.525-1.012-4.944-2.801-6.727l-19.822-19.825
		c-1.781-1.788-4.201-2.795-6.727-2.8h-8.751v-9.523c-0.001-5.26-4.265-9.524-9.524-9.525h-50.8
		c-5.26,0.001-9.524,4.265-9.525,9.525v9.525h-11.113c-0.875,0.002-1.584,0.711-1.587,1.587v3.175
		c0.002,0.875,0.711,1.585,1.587,1.588h53.975c0.875,0.002,1.584,0.711,1.587,1.587v3.175c-0.002,0.875-0.711,1.584-1.587,1.587
		h-47.625c-0.875,0.003-1.585,0.712-1.587,1.588v3.175c0.002,0.876,0.711,1.585,1.587,1.588h41.275
		c0.876,0.002,1.585,0.711,1.588,1.587v3.175c-0.002,0.876-0.712,1.586-1.588,1.588h-47.625c-0.875,0.003-1.584,0.712-1.587,1.587
		v3.175c0.002,0.876,0.711,1.586,1.587,1.588h41.275c0.876,0.002,1.585,0.712,1.588,1.588v3.175
		c-0.003,0.876-0.712,1.585-1.588,1.587H1135.7v25.4c0,10.521,8.529,19.049,19.05,19.049s19.05-8.528,19.05-19.049h25.4
		c0,10.521,8.528,19.049,19.05,19.049s19.05-8.528,19.05-19.049h9.525c1.751-0.006,3.169-1.424,3.175-3.175v-6.35
		C1249.995,1520.074,1248.576,1518.654,1246.825,1518.65z M1154.75,1540.875c-5.261,0-9.525-4.265-9.525-9.525
		c0-5.26,4.264-9.524,9.525-9.524s9.525,4.265,9.525,9.524C1164.274,1536.61,1160.01,1540.874,1154.75,1540.875z M1218.25,1540.875
		c-5.261,0-9.525-4.265-9.525-9.525c0-5.26,4.265-9.524,9.525-9.524s9.525,4.265,9.525,9.524
		C1227.773,1536.61,1223.51,1540.874,1218.25,1540.875z M1234.125,1499.6h-28.575v-22.225h8.75l19.825,19.825V1499.6z"/>
</g>
</svg>
