<?xml version="1.0" encoding="utf-8"?>
<!-- Generator: Adobe Illustrator 15.0.0, SVG Export Plug-In . SVG Version: 6.00 Build 0)  -->
<!DOCTYPE svg PUBLIC "-//W3C//DTD SVG 1.1//EN" "http://www.w3.org/Graphics/SVG/1.1/DTD/svg11.dtd">
<svg version="1.1" id="Calque_1" xmlns="http://www.w3.org/2000/svg" xmlns:xlink="http://www.w3.org/1999/xlink" x="0px" y="0px"
	 width="153px" height="153px" viewBox="0 0 153 153" enable-background="new 0 0 153 153" xml:space="preserve">
<g transform="translate(-1526 -1420)">
	<linearGradient id="SVGID_1_" gradientUnits="userSpaceOnUse" x1="1602.4995" y1="1420" x2="1602.4995" y2="1570.0533">
		<stop  offset="0" style="stop-color:#F45B5B"/>
		<stop  offset="1" style="stop-color:#FCC9C9"/>
	</linearGradient>
	<path fill="url(#SVGID_1_)" d="M1602.5,1420c42.25,0,76.5,34.25,76.5,76.5s-34.25,76.5-76.5,76.5s-76.5-34.25-76.5-76.5
		S1560.25,1420,1602.5,1420z"/>
	<path fill="#222C40" d="M1576.419,1489.931h-13.506c-2.325,0.091-4.137,2.047-4.052,4.372v43.725
		c-0.085,2.326,1.728,4.281,4.052,4.373h13.506c2.325-0.092,4.137-2.047,4.052-4.373v-43.725
		C1580.556,1491.978,1578.744,1490.022,1576.419,1489.931z M1569.661,1535.113c-2.415-0.184-4.225-2.289-4.042-4.703
		c0.164-2.161,1.881-3.879,4.042-4.042c2.415,0.183,4.224,2.288,4.042,4.703C1573.539,1533.232,1571.822,1534.949,1569.661,1535.113
		z M1623.689,1463.96c0,7.728-4.385,12.062-5.619,17.225h17.174c5.638,0,10.027,5.055,10.054,10.585
		c0.009,3.283-1.154,6.462-3.282,8.962l-0.019,0.021c1.79,4.804,1.208,10.171-1.571,14.478c1.318,4.721,0.29,9.787-2.765,13.621
		c0.726,3.205,0.379,5.935-1.038,8.131c-3.446,5.342-11.986,5.418-19.207,5.418h-0.48c-8.151,0-14.824-3.207-20.184-5.78
		c-2.691-1.293-6.218-2.899-8.891-2.947c-1.146-0.067-2.029-1.038-1.989-2.187v-38.945c-0.003-0.575,0.211-1.129,0.6-1.552
		c6.689-7.132,9.565-14.682,15.046-20.608c2.5-2.7,3.408-6.784,4.287-10.731c0.752-3.37,2.321-10.529,5.729-10.529
		C1615.585,1449.121,1623.689,1450.578,1623.689,1463.96z"/>
</g>
</svg>
