<?xml version="1.0" encoding="utf-8"?>
<!-- Generator: Adobe Illustrator 15.0.0, SVG Export Plug-In . SVG Version: 6.00 Build 0)  -->
<!DOCTYPE svg PUBLIC "-//W3C//DTD SVG 1.1//EN" "http://www.w3.org/Graphics/SVG/1.1/DTD/svg11.dtd">
<svg version="1.1" id="Calque_1" xmlns="http://www.w3.org/2000/svg" xmlns:xlink="http://www.w3.org/1999/xlink" x="0px" y="0px"
	 width="67.348px" height="67.463px" viewBox="0 0 67.348 67.463" enable-background="new 0 0 67.348 67.463" xml:space="preserve">
<g id="Icon_feather-phone-incoming" transform="translate(4.001 5.657)">
	<path fill="#FFFFFF" d="M54.928,23.333H38.357c-2.209,0-4-1.791-4-4V2.762c0-2.209,1.791-4,4-4s4,1.791,4,4v12.571h12.571
		c2.209,0,4,1.791,4,4S57.137,23.333,54.928,23.333z"/>
	<path fill="#FFFFFF" d="M38.357,23.333c-1.023,0-2.048-0.391-2.828-1.171c-1.563-1.563-1.563-4.095,0-5.657L54.862-2.828
		c1.561-1.562,4.096-1.562,5.656,0c1.563,1.563,1.563,4.095,0,5.657L41.185,22.162C40.405,22.943,39.38,23.333,38.357,23.333z"/>
	<path fill="#FFFFFF" d="M49.399,61.801c-0.283,0-0.565-0.013-0.848-0.038c-9.149-0.993-17.996-4.141-25.655-9.108
		C15.807,48.152,9.651,41.995,5.125,34.873C0.16,27.21-2.987,18.324-3.956,9.206C-4.434,3.912-0.564-0.727,4.667-1.199
		c0.284-0.025,0.567-0.039,0.851-0.039h8.286c4.774,0,8.828,3.521,9.489,8.19c0.315,2.387,0.892,4.704,1.72,6.924
		c1.3,3.459,0.459,7.403-2.147,10.038l-1.285,1.285c2.897,4.307,6.605,8.015,10.912,10.913l1.27-1.269
		c1.81-1.79,4.188-2.768,6.713-2.768c1.146,0,2.273,0.204,3.349,0.607c2.211,0.826,4.526,1.403,6.876,1.713
		c4.739,0.67,8.219,4.69,8.229,9.413c0.002,0.053,0.003,0.106,0.003,0.16v8.286c0.011,2.527-0.971,4.923-2.762,6.729
		c-1.792,1.807-4.18,2.807-6.724,2.816C49.441,61.801,49.404,61.801,49.399,61.801z M49.346,53.801c0.013,0,0.032,0,0.053,0v4
		l0.01-4c0.556-0.002,0.916-0.283,1.082-0.45s0.443-0.53,0.441-1.079v-8.106c-0.005-0.098-0.006-0.196-0.004-0.295
		c0.02-0.774-0.544-1.439-1.311-1.548c-2.911-0.384-5.817-1.108-8.6-2.147c-0.576-0.217-1.198-0.073-1.614,0.34l-3.493,3.492
		c-1.271,1.274-3.241,1.541-4.806,0.648c-7.536-4.285-13.784-10.534-18.068-18.069c-0.89-1.565-0.625-3.532,0.648-4.805l3.508-3.508
		c0.401-0.406,0.536-1.037,0.328-1.591c-1.042-2.795-1.766-5.7-2.154-8.646c-0.101-0.71-0.749-1.274-1.503-1.274l-8.345,0
		c-0.044,0-0.089,0.002-0.133,0.006C4.55,6.844,3.93,7.586,4.006,8.423c0.831,7.812,3.548,15.486,7.853,22.13
		c3.919,6.167,9.224,11.472,15.359,15.37c6.646,4.31,14.286,7.028,22.126,7.88C49.327,53.801,49.332,53.801,49.346,53.801z"/>
</g>
</svg>
